<svg width="170" height="200.00000000000003" xmlns="http://www.w3.org/2000/svg">
 <!-- Created with Method Draw - http://github.com/duopixel/Method-Draw/ -->
 
 <g>
  <title>background</title>
  <g display="none" overflow="visible" y="0" x="0" height="100%" width="100%" id="canvasGrid">
   <rect fill="url(#gridpattern)" stroke-width="0" y="0" x="0" height="100%" width="100%"/>
  </g>
 </g>
 <g>
  <title>Layer 1</title>
  <g transform="rotate(6.980920791625977 86.4772415161133,102.41131591796885) " id="svg_17">
   <path id="svg_11" d="m85.225117,82.186352c-15.999738,5.999902 -29.999508,14.999754 -28.499533,22.499631c1.499976,7.499877 17.74971,34.749428 11.499812,47.249224c-6.249897,12.499795 -16.49973,20.749659 -18.999689,28.499533c-2.499959,7.749873 14.999754,22.999622 25.749578,12.249799c10.749824,-10.749823 10.749824,-23.999606 28.749528,-31.499483c17.999705,-7.499877 31.499484,-0.499992 45.74925,0c14.249766,0.499992 21.499648,-7.499878 18.499697,-17.999705c-2.999951,-10.499828 -14.749758,-10.249831 -24.749594,-9.499843c-9.999836,0.749987 -11.749808,1.749971 -14.499763,0.749987c-2.749955,-0.999984 -7.999868,-6.749889 -12.249799,-18.249701c-4.24993,-11.499811 -15.24975,-39.999344 -31.249487,-33.999442z" fill-opacity="null" stroke-opacity="null" stroke-width="4" stroke="#000" fill="#fff"/>
   <path transform="rotate(-11.252765655517578 47.1243171691891,118.83171081542964) " stroke="#000" id="svg_9" d="m82.317731,115.485555c-16.718031,0.403572 -39.705323,-0.807145 -44.720733,-3.228577c-5.015409,-2.421433 -13.792375,-4.237508 -21.733441,-3.833935c-7.941065,0.403572 -11.284671,8.6768 -8.56799,15.133955c2.716679,6.457154 20.061636,6.457154 31.555283,4.842866c11.493647,-1.614289 26.74885,-4.439294 30.510407,-5.246438c3.761557,-0.807145 29.674505,-8.071443 12.956473,-7.66787z" fill-opacity="null" stroke-opacity="null" stroke-width="4" fill="#fff"/>
   <path id="svg_10" d="m95.224954,111.685867c11.999803,-1.999967 59.74902,-19.49968 64.998934,-26.499565c5.249914,-6.999885 -5.999902,-18.249701 -14.999754,-12.249799c-8.999852,5.999902 -37.999377,29.499516 -46.999229,32.749463c-8.999852,3.249947 -14.999754,7.999869 -2.999951,5.999902z" fill-opacity="null" stroke-opacity="null" stroke-width="4" stroke="#000" fill="#fff"/>
   <ellipse ry="13.99977" rx="15.749739" id="svg_14" cy="110.93588" cx="95.974923" fill-opacity="null" stroke-opacity="null" stroke-width="4" fill="#fff"/>
   <ellipse ry="21.499647" rx="21.499647" id="svg_15" cy="113.685834" cx="85.475113" fill-opacity="null" stroke-opacity="null" stroke-width="4" fill="#fff"/>
   <path id="svg_3" d="m35.48042,37.387871c-8.499907,3.999956 -22.999748,-3.499961 -21.999759,-9.99989c0.999989,-6.499929 15.999825,-14.999836 21.999759,-10.99988c5.999934,3.999956 8.499907,16.999814 0,20.99977z" fill-opacity="null" stroke-opacity="null" stroke-width="4" stroke="#000" fill="#fff"/>
   <path id="svg_4" d="m62.480124,27.887976c7.499919,-1.999978 11.499875,-15.499831 5.499941,-20.999771c-5.999935,-5.49994 -18.999792,0.000001 -22.499754,4.999946c-3.499962,4.999945 9.499896,17.999803 16.999814,15.999825z" fill-opacity="null" stroke-opacity="null" stroke-width="4" stroke="#000" fill="#fff"/>
   <path id="svg_2" d="m56.48019,18.388079c-27.999694,10.499885 -40.749558,14.999841 -47.249487,33.999633c-6.499929,18.999792 -7.249921,29.499674 -3.249965,42.999525c3.999956,13.499851 17.499813,14.999835 32.999643,16.999813c15.499831,1.999979 62.999311,-0.999989 85.999059,-21.499764c22.999749,-20.499776 -1.999978,-49.999453 -14.999836,-60.499338c-12.999857,-10.499885 -25.49972,-22.499754 -53.499414,-11.999869z" stroke-width="4" stroke="#000" fill="#fff"/>
   <ellipse transform="rotate(-18.690771102905273 97.22975921630855,50.88772583007811) " ry="11.499874" rx="5.249942" id="svg_6" cy="50.887723" cx="97.229742" stroke-opacity="null" stroke-width="4" fill="#000000"/>
   <ellipse transform="rotate(-18.690771102905273 80.22991180419916,56.8876495361328) " ry="11.499874" rx="5.249942" id="svg_7" cy="56.887658" cx="80.229929" stroke-opacity="null" stroke-width="4" fill="#000000"/>
   <path transform="rotate(5.878715991973877 96.91024017333973,74.2336578369141) " id="svg_8" d="m86.475097,75.436462c-0.999984,1.999967 3.999934,6.749889 7.999869,7.499877c3.999934,0.749988 12.999787,-2.999951 12.999787,-10.249832c0,-7.249881 -2.749955,-7.249881 -2.749955,-7.249881c0,0 -17.249717,7.999869 -18.249701,9.999836z" fill-opacity="null" stroke-opacity="null" stroke-width="4" stroke="#000" fill="#fff"/>
  </g>
 </g>
</svg>